# xmcd CD database file
#
# Track frame offsets:
#	150
#	17668
#	39669
#	58413
#	63010
#	84601
#	108711
#	127343
#	145275
#	150308
#	175886
#	196142
#	226996
#	233017
#	249381
#
# Disc length: 3620 seconds
#
# Revision: 0
# Processed by: cddbd v1.4PL0 Copyright (c) Steve Scherf et al.
# Submitted via: CDex 1.50
#
DISCID=ca0e220f
DTITLE=Andrienne Wilson - She's Dangerous
DYEAR=1998
DGENRE=Jazz
TTITLE0=Yo' Bobby!
TTITLE1=Please Don't Say
TTITLE2=She's Dangerous
TTITLE3=There Will Always Be......
TTITLE4=Love Song
TTITLE5=Everytime
TTITLE6=Love, Of Course
TTITLE7=If You Only Knew
TTITLE8=There Will Never Be Another You
TTITLE9=It's So Hard
TTITLE10='Tis Romance
TTITLE11=Like A Lover
TTITLE12=There Be Us
TTITLE13='Twas
TTITLE14=She's Dangerous (Reprise)
EXTD=YEAR: 1998
EXTT0=
EXTT1=
EXTT2=
EXTT3=
EXTT4=
EXTT5=
EXTT6=
EXTT7=
EXTT8=
EXTT9=
EXTT10=
EXTT11=
EXTT12=
EXTT13=
EXTT14=
PLAYORDER=
